<svg width="599" height="252" viewBox="0 0 599 252" fill="none" xmlns="http://www.w3.org/2000/svg">
<g clip-path="url(#clip0_1448_4183)">
<path d="M95.2451 233.951L120.707 218.559L87.5293 129.289L135.367 87.7314L100.646 65.4137L126.108 3.84766L218.698 70.8008L216.383 26.9349L235.673 36.1698L295.856 44.6352L371.471 87.7314L386.902 113.127L518.842 172.385M518.842 172.385L430.882 156.224L429.339 223.946M518.842 172.385L429.339 223.946M429.339 223.946L518.842 207.785L607.574 258.577" stroke="#6EE087" stroke-opacity="0.4"/>
<path d="M170.859 275.508L164.686 173.154L120.706 218.559L46.6346 138.523L54.3504 80.8052L16.543 176.233L95.2441 233.951" stroke="#89EC83" stroke-opacity="0.4"/>
<path d="M637.665 241.647L518.842 172.385L594.457 164.689" stroke="url(#paint0_linear_1448_4183)"/>
<path d="M518.842 207.786H637.279L607.573 258.578" stroke="url(#paint1_linear_1448_4183)"/>
<path d="M430.882 156.224L235.672 36.1699L218.697 70.8008L212.525 111.588M203.266 161.611L253.418 190.085L295.084 200.859L282.738 241.647L341.378 275.508L363.754 223.946H429.339" stroke="#89EC83" stroke-opacity="0.4"/>
<path d="M490.293 87.7316L295.855 44.6354L312.444 156.224L212.524 111.588L168.544 68.4922M490.293 87.7316L386.901 113.128L253.418 190.085L194.778 223.947L120.706 218.56L16.543 176.233L46.6346 138.524L87.5283 129.289L54.3504 80.8055L100.645 65.4139L168.544 68.4922M490.293 87.7316L594.456 164.689M490.293 87.7316L582.111 97.7361M168.544 68.4922L176.26 40.0179L184.747 10.7741L216.382 26.9352V0" stroke="#89EC83" stroke-opacity="0.4"/>
<path d="M430.882 156.224L328.262 164.689L371.471 87.7316L212.525 111.588L135.367 87.7316M135.367 87.7316L164.687 173.154L87.5293 129.289L100.646 65.4139L216.383 26.9351L312.059 156.224L295.084 200.859L363.755 223.946L472.933 302.058M135.367 87.7316L203.266 161.611M472.933 302.058L534.274 275.508M472.933 302.058L429.339 223.946" stroke="#89EC83" stroke-opacity="0.4"/>
<path d="M135.367 87.7314L126.108 3.84766L54.3508 80.8052L28.8887 3.84766L100.646 65.4137" stroke="#89EC83" stroke-opacity="0.4"/>
<path d="M203.267 161.611L194.779 223.946M282.739 241.647L253.419 190.085L295.856 44.6353" stroke="#89EC83" stroke-opacity="0.4"/>
<path d="M371.469 87.7315L401.56 36.5547L490.292 87.7315" stroke="#89EC83" stroke-opacity="0.4"/>
<path d="M386.903 113.128L401.563 36.9395L287.369 10.3892L295.857 44.6353" stroke="#89EC83" stroke-opacity="0.4"/>
<path d="M429.338 223.946L534.273 275.508L518.842 207.785V172.385L490.293 87.7314L430.881 156.224L363.754 223.946M429.338 223.946L328.261 164.689M429.338 223.946L420.079 264.349M363.754 223.946L328.261 164.689M363.754 223.946L295.083 200.859M328.261 164.689L295.083 200.859M295.083 200.859L240.301 158.532M295.083 200.859L282.738 241.647M240.301 158.532L203.265 161.611M240.301 158.532L212.524 111.588L203.265 161.611M203.265 161.611L164.686 173.154L194.778 223.946M194.778 223.946L95.2441 233.951L170.859 275.508L194.778 223.946Z" stroke="url(#paint2_linear_1448_4183)"/>
<path d="M194.779 223.947L282.739 241.647L230.272 279.356L194.779 223.947Z" stroke="url(#paint3_linear_1448_4183)"/>
<path d="M67.4672 173.924L16.543 176.233L95.2441 233.951M67.4672 173.924L95.2441 233.951M67.4672 173.924L87.5283 129.289M67.4672 173.924L164.686 173.154L282.738 241.647M95.2441 233.951L90.6146 269.351" stroke="url(#paint4_linear_1448_4183)"/>
<path fill-rule="evenodd" clip-rule="evenodd" d="M237.215 36.17C237.215 37.0201 236.524 37.7092 235.672 37.7092C234.819 37.7092 234.129 37.0201 234.129 36.17C234.129 35.3199 234.819 34.6309 235.672 34.6309C236.524 34.6309 237.215 35.3199 237.215 36.17ZM401.562 38.4787C402.41 38.4787 403.105 37.7897 403.105 36.9396C403.105 36.0895 402.41 35.4004 401.562 35.4004C400.713 35.4004 400.018 36.0895 400.018 36.9396C400.018 37.7897 400.713 38.4787 401.562 38.4787ZM54.3506 82.3446C55.2032 82.3446 55.8937 81.6555 55.8937 80.8054C55.8937 79.9553 55.2032 79.2663 54.3506 79.2663C53.498 79.2663 52.8074 79.9553 52.8074 80.8054C52.8074 81.6555 53.498 82.3446 54.3506 82.3446ZM87.5285 131.597C88.807 131.597 89.8433 130.564 89.8433 129.289C89.8433 128.013 88.807 126.98 87.5285 126.98C86.25 126.98 85.2138 128.013 85.2138 129.289C85.2138 130.564 86.25 131.597 87.5285 131.597ZM214.839 111.588C214.839 112.864 213.803 113.897 212.524 113.897C211.246 113.897 210.21 112.864 210.21 111.588C210.21 110.313 211.246 109.28 212.524 109.28C213.803 109.28 214.839 110.313 214.839 111.588ZM240.301 160.841C241.58 160.841 242.616 159.808 242.616 158.533C242.616 157.257 241.58 156.224 240.301 156.224C239.023 156.224 237.987 157.257 237.987 158.533C237.987 159.808 239.023 160.841 240.301 160.841ZM206.352 161.611C206.352 163.311 204.97 164.689 203.266 164.689C201.561 164.689 200.179 163.311 200.179 161.611C200.179 159.911 201.561 158.533 203.266 158.533C204.97 158.533 206.352 159.911 206.352 161.611ZM282.738 245.495C284.869 245.495 286.596 243.772 286.596 241.647C286.596 239.522 284.869 237.799 282.738 237.799C280.608 237.799 278.88 239.522 278.88 241.647C278.88 243.772 280.608 245.495 282.738 245.495ZM367.612 223.947C367.612 226.071 365.884 227.794 363.754 227.794C361.624 227.794 359.896 226.071 359.896 223.947C359.896 221.822 361.624 220.099 363.754 220.099C365.884 220.099 367.612 221.822 367.612 223.947ZM95.2443 237.799C97.3746 237.799 99.1022 236.076 99.1022 233.951C99.1022 231.826 97.3746 230.103 95.2443 230.103C93.114 230.103 91.3864 231.826 91.3864 233.951C91.3864 236.076 93.114 237.799 95.2443 237.799ZM433.968 156.224C433.968 157.924 432.587 159.302 430.882 159.302C429.176 159.302 427.795 157.924 427.795 156.224C427.795 154.524 429.176 153.146 430.882 153.146C432.587 153.146 433.968 154.524 433.968 156.224ZM518.842 175.463C520.547 175.463 521.928 174.085 521.928 172.385C521.928 170.685 520.547 169.307 518.842 169.307C517.137 169.307 515.755 170.685 515.755 172.385C515.755 174.085 517.137 175.463 518.842 175.463ZM522.7 207.785C522.7 209.91 520.971 211.633 518.842 211.633C516.712 211.633 514.984 209.91 514.984 207.785C514.984 205.661 516.712 203.938 518.842 203.938C520.971 203.938 522.7 205.661 522.7 207.785ZM429.338 227.025C431.044 227.025 432.425 225.646 432.425 223.947C432.425 222.247 431.044 220.868 429.338 220.868C427.633 220.868 426.252 222.247 426.252 223.947C426.252 225.646 427.633 227.025 429.338 227.025ZM389.216 113.128C389.216 114.403 388.182 115.436 386.902 115.436C385.621 115.436 384.587 114.403 384.587 113.128C384.587 111.852 385.621 110.819 386.902 110.819C388.182 110.819 389.216 111.852 389.216 113.128ZM371.47 89.2707C372.319 89.2707 373.013 88.5817 373.013 87.7316C373.013 86.8815 372.319 86.1924 371.47 86.1924C370.621 86.1924 369.927 86.8815 369.927 87.7316C369.927 88.5817 370.621 89.2707 371.47 89.2707ZM492.608 87.7316C492.608 89.0067 491.574 90.0403 490.293 90.0403C489.012 90.0403 487.978 89.0067 487.978 87.7316C487.978 86.4565 489.012 85.4229 490.293 85.4229C491.574 85.4229 492.608 86.4565 492.608 87.7316ZM298.17 200.859C298.17 202.559 296.788 203.938 295.084 203.938C293.379 203.938 291.997 202.559 291.997 200.859C291.997 199.159 293.379 197.781 295.084 197.781C296.788 197.781 298.17 199.159 298.17 200.859ZM100.645 66.953C101.498 66.953 102.189 66.264 102.189 65.4139C102.189 64.5638 101.498 63.8747 100.645 63.8747C99.7928 63.8747 99.1022 64.5638 99.1022 65.4139C99.1022 66.264 99.7928 66.953 100.645 66.953ZM167.001 173.154C167.001 174.43 165.965 175.463 164.687 175.463C163.408 175.463 162.372 174.43 162.372 173.154C162.372 171.879 163.408 170.846 164.687 170.846C165.965 170.846 167.001 171.879 167.001 173.154ZM194.778 227.025C196.483 227.025 197.864 225.646 197.864 223.947C197.864 222.247 196.483 220.868 194.778 220.868C193.074 220.868 191.692 222.247 191.692 223.947C191.692 225.646 193.074 227.025 194.778 227.025ZM136.91 87.7316C136.91 88.5817 136.219 89.2707 135.366 89.2707C134.514 89.2707 133.823 88.5817 133.823 87.7316C133.823 86.8815 134.514 86.1924 135.366 86.1924C136.219 86.1924 136.91 86.8815 136.91 87.7316ZM168.544 70.0313C169.397 70.0313 170.088 69.3423 170.088 68.4922C170.088 67.6421 169.397 66.953 168.544 66.953C167.692 66.953 167.001 67.6421 167.001 68.4922C167.001 69.3423 167.692 70.0313 168.544 70.0313ZM177.803 40.0179C177.803 40.868 177.113 41.557 176.26 41.557C175.408 41.557 174.717 40.868 174.717 40.0179C174.717 39.1678 175.408 38.4787 176.26 38.4787C177.113 38.4787 177.803 39.1678 177.803 40.0179ZM218.697 73.1096C219.976 73.1096 221.012 72.076 221.012 70.8009C221.012 69.5258 219.976 68.4922 218.697 68.4922C217.419 68.4922 216.382 69.5258 216.382 70.8009C216.382 72.076 217.419 73.1096 218.697 73.1096ZM295.855 46.1745C296.708 46.1745 297.398 45.4854 297.398 44.6353C297.398 43.7853 296.708 43.0962 295.855 43.0962C295.003 43.0962 294.312 43.7853 294.312 44.6353C294.312 45.4854 295.003 46.1745 295.855 46.1745ZM18.0863 176.233C18.0863 177.083 17.3958 177.772 16.5432 177.772C15.6906 177.772 15 177.083 15 176.233C15 175.382 15.6906 174.694 16.5432 174.694C17.3958 174.694 18.0863 175.382 18.0863 176.233ZM67.4674 177.002C69.1719 177.002 70.5538 175.624 70.5538 173.924C70.5538 172.224 69.1719 170.846 67.4674 170.846C65.763 170.846 64.3811 172.224 64.3811 173.924C64.3811 175.624 65.763 177.002 67.4674 177.002Z" fill="url(#paint5_linear_1448_4183)"/>
<path fill-rule="evenodd" clip-rule="evenodd" d="M217.926 26.9351C217.926 27.7852 217.235 28.4743 216.383 28.4743C215.53 28.4743 214.839 27.7852 214.839 26.9351C214.839 26.0851 215.53 25.396 216.383 25.396C217.235 25.396 217.926 26.0851 217.926 26.9351ZM48.1781 138.524C48.1781 139.374 47.4876 140.063 46.635 140.063C45.7824 140.063 45.0918 139.374 45.0918 138.524C45.0918 137.673 45.7824 136.984 46.635 136.984C47.4876 136.984 48.1781 137.673 48.1781 138.524ZM120.707 220.868C121.985 220.868 123.021 219.835 123.021 218.56C123.021 217.284 121.985 216.251 120.707 216.251C119.428 216.251 118.392 217.284 118.392 218.56C118.392 219.835 119.428 220.868 120.707 220.868ZM255.733 190.085C255.733 191.36 254.697 192.394 253.418 192.394C252.14 192.394 251.104 191.36 251.104 190.085C251.104 188.81 252.14 187.777 253.418 187.777C254.697 187.777 255.733 188.81 255.733 190.085ZM328.262 167.768C329.966 167.768 331.348 166.389 331.348 164.689C331.348 162.989 329.966 161.611 328.262 161.611C326.557 161.611 325.175 162.989 325.175 164.689C325.175 166.389 326.557 167.768 328.262 167.768Z" fill="#A3EB9E" fill-opacity="0.8"/>
</g>
<path d="M400.399 119.879C400.383 119.724 400.352 119.583 400.321 119.428C400.26 119.07 400.167 118.711 400.074 118.338C400.027 118.182 399.996 118.026 399.95 117.87C399.811 117.42 399.656 116.983 399.47 116.547C399.455 116.501 399.424 116.438 399.408 116.392V116.361C399.191 115.893 398.959 115.442 398.696 114.991C398.634 114.882 398.556 114.757 398.494 114.648C398.246 114.243 397.998 113.838 397.72 113.45C397.689 113.403 397.658 113.341 397.612 113.294C397.364 112.951 397.101 112.624 396.837 112.313C396.76 112.235 396.682 112.157 396.605 112.079C396.543 112.017 396.481 111.939 396.419 111.877C396.078 111.519 395.706 111.177 395.335 110.865C395.289 110.819 395.227 110.788 395.18 110.741C394.777 110.429 394.375 110.133 393.956 109.884L330.244 72.911C328.401 71.8524 326.744 71.7434 325.551 72.4439L319 76.2736C320.193 75.5731 321.865 75.6665 323.693 76.7407L387.405 113.714C387.824 113.963 388.226 114.243 388.629 114.57C388.691 114.617 388.738 114.648 388.8 114.695C389.171 115.006 389.527 115.349 389.883 115.706C389.945 115.769 390.007 115.847 390.069 115.909C390.426 116.298 390.751 116.703 391.076 117.124C391.107 117.17 391.138 117.233 391.185 117.279C391.464 117.669 391.711 118.057 391.959 118.478C392.021 118.587 392.098 118.711 392.16 118.82C392.423 119.288 392.656 119.755 392.873 120.221C392.904 120.268 392.919 120.33 392.935 120.377C393.121 120.813 393.275 121.265 393.415 121.701C393.461 121.856 393.508 122.011 393.539 122.152C393.646 122.51 393.724 122.884 393.786 123.242C393.817 123.397 393.848 123.538 393.863 123.693C393.941 124.191 393.987 124.674 393.987 125.157L393.786 198.761C393.786 200.847 393.043 202.326 391.866 203.011L398.417 199.182C399.594 198.496 400.337 197.018 400.337 194.932L400.538 121.327C400.538 120.844 400.492 120.361 400.414 119.863L400.399 119.879Z" fill="url(#paint6_linear_1448_4183)"/>
<path d="M317 80.5C317 76.3579 319.908 74.6789 323.495 76.75L387.619 113.772C391.446 115.981 394.547 121.354 394.547 125.772L394.547 198.316C394.547 203.287 391.058 205.301 386.753 202.816L323.062 166.044C319.714 164.111 317 159.41 317 155.544L317 80.5Z" fill="url(#paint7_linear_1448_4183)"/>
<path d="M335.465 98.106L365.894 115.674L370.369 123.912L376.634 135.239L376.634 182.527L335.465 158.758L335.465 98.106Z" fill="url(#paint8_linear_1448_4183)"/>
<rect x="0.216506" y="0.375" width="37.737" height="15.0015" transform="matrix(0.866025 0.5 -2.20305e-08 1 339.967 140.885)" stroke="#DBFAD9" stroke-width="0.5"/>
<line y1="-0.25" x2="38.237" y2="-0.25" transform="matrix(0.866025 0.5 -2.20305e-08 1 339.938 145.127)" stroke="#DBFAD9" stroke-width="0.5"/>
<line y1="-0.25" x2="38.237" y2="-0.25" transform="matrix(0.866025 0.5 -2.20305e-08 1 339.938 153.395)" stroke="#DBFAD9" stroke-width="0.5"/>
<line y1="-0.25" x2="38.237" y2="-0.25" transform="matrix(0.866025 0.5 -2.20305e-08 1 339.938 149.261)" stroke="#DBFAD9" stroke-width="0.5"/>
<line y1="-0.25" x2="15.5727" y2="-0.25" transform="matrix(-2.20305e-08 1 -0.866025 -0.5 346.109 144.415)" stroke="#DBFAD9" stroke-width="0.5"/>
<rect width="9.83542" height="9.83542" transform="matrix(0.866025 0.5 -2.20305e-08 1 339.725 110.4)" fill="#DBFAD9"/>
<rect width="10.655" height="1.63924" transform="matrix(0.866025 0.5 -2.20305e-08 1 349.66 124.333)" fill="#DBFAD9"/>
<rect width="13.9335" height="2.45885" transform="matrix(0.866025 0.5 -2.20305e-08 1 349.66 120.235)" fill="#DBFAD9"/>
<rect width="22.1297" height="1.22943" transform="matrix(0.866025 0.5 -2.20305e-08 1 339.725 125.153)" fill="#DBFAD9"/>
<rect width="18.8512" height="1.22943" transform="matrix(0.866025 0.5 -2.20305e-08 1 339.725 131.71)" fill="#DBFAD9"/>
<rect width="14.1384" height="1.22943" transform="matrix(0.866025 0.5 -2.20305e-08 1 339.725 128.432)" fill="#DBFAD9"/>
<rect width="10.4501" height="1.22943" transform="matrix(0.866025 0.5 -2.20305e-08 1 353.92 136.628)" fill="#DBFAD9"/>
<path d="M376.633 134.989L365.986 115.728L365.986 128.842L376.633 134.989Z" fill="#AFEDAB"/>
<path d="M341.852 151.955L342.916 154.045L344.691 152.611" stroke="#DBFAD9" stroke-width="0.5"/>
<path d="M372.534 154.632C371.678 154.228 370.576 153.035 370.249 152.222C370.175 152.084 370.082 151.96 369.98 151.864C369.878 151.768 369.771 151.705 369.671 151.681C369.311 151.63 368.967 151.634 368.645 151.693C368.645 151.693 368.979 150.458 368.359 149.82C367.771 149.212 366.997 149.109 366.485 149.013C366.459 148.422 366.298 147.764 366.02 147.12C365.94 146.97 365.836 146.838 365.724 146.743C365.612 146.647 365.497 146.593 365.394 146.587C363.894 146.721 362.67 147.513 361.857 148.876C361.757 149.06 362.422 149.683 362.521 149.501C363.241 148.288 364.3 147.545 365.598 147.342C365.77 147.903 365.855 148.45 365.845 148.94C365.266 148.891 364.76 149.055 364.371 149.417C364.169 149.623 363.833 149.896 364.228 150.576C364.415 150.879 364.64 151.14 364.878 151.332C365.116 151.525 365.358 151.642 365.579 151.67C366.443 151.666 366.492 150.497 366.496 149.633C366.999 149.662 367.532 149.793 368.08 150.023C368.212 150.141 367.863 151.743 367.8 152.102C367.768 152.289 368.292 152.882 368.436 152.753C368.824 152.438 369.312 152.301 369.863 152.352C370.737 153.707 371.829 154.758 372.911 155.284C373.295 155.466 372.917 154.811 372.534 154.632ZM365.319 150.894C365.144 151.086 364.755 150.8 364.745 150.487C364.722 149.803 365.311 149.763 365.804 149.668C365.736 150.174 365.57 150.592 365.319 150.894Z" fill="#DBFAD9"/>
<path d="M335.465 92.188L325.253 86.292C324.774 86.0158 324.387 86.2397 324.387 86.792L324.387 98.584" stroke="#58AB51" stroke-width="2" stroke-linecap="round" stroke-linejoin="round"/>
<path d="M376.084 115.64L386.296 121.536C386.774 121.812 387.162 122.484 387.162 123.036L387.162 134.828" stroke="#58AB51" stroke-width="2" stroke-linecap="round" stroke-linejoin="round"/>
<path d="M335.465 164.676L325.253 158.78C324.774 158.504 324.387 157.832 324.387 157.28L324.387 145.488" stroke="#58AB51" stroke-width="2" stroke-linecap="round" stroke-linejoin="round"/>
<path d="M376.084 188.128L386.296 194.024C386.774 194.3 387.162 194.076 387.162 193.524L387.162 181.732" stroke="#58AB51" stroke-width="2" stroke-linecap="round" stroke-linejoin="round"/>
<defs>
<linearGradient id="paint0_linear_1448_4183" x1="525.539" y1="168.771" x2="538.937" y2="263.797" gradientUnits="userSpaceOnUse">
<stop stop-color="#69C364"/>
<stop offset="0.95833" stop-color="#56A950"/>
</linearGradient>
<linearGradient id="paint1_linear_1448_4183" x1="525.516" y1="210.479" x2="528.186" y2="275.703" gradientUnits="userSpaceOnUse">
<stop stop-color="#75D470"/>
<stop offset="0.95833" stop-color="#63BB5D"/>
</linearGradient>
<linearGradient id="paint2_linear_1448_4183" x1="119.997" y1="97.6892" x2="129.789" y2="338.862" gradientUnits="userSpaceOnUse">
<stop offset="0.40428" stop-color="#75D370"/>
<stop offset="0.95833" stop-color="#56A84F"/>
</linearGradient>
<linearGradient id="paint3_linear_1448_4183" x1="199.738" y1="226.885" x2="208.647" y2="295.557" gradientUnits="userSpaceOnUse">
<stop stop-color="#75D470"/>
<stop offset="0.95833" stop-color="#63BA5C"/>
</linearGradient>
<linearGradient id="paint4_linear_1448_4183" x1="31.551" y1="136.716" x2="44.9302" y2="313.7" gradientUnits="userSpaceOnUse">
<stop stop-color="#73D06D"/>
<stop offset="0.95833" stop-color="#64BB5E"/>
</linearGradient>
<linearGradient id="paint5_linear_1448_4183" x1="268.433" y1="245.495" x2="268.433" y2="34.6309" gradientUnits="userSpaceOnUse">
<stop stop-color="#55A54E"/>
<stop offset="0.47917" stop-color="#69C363"/>
<stop offset="1" stop-color="#76D571"/>
</linearGradient>
<linearGradient id="paint6_linear_1448_4183" x1="359.702" y1="203.01" x2="359.702" y2="72" gradientUnits="userSpaceOnUse">
<stop stop-color="#56A850"/>
<stop offset="0.47917" stop-color="#73D16E"/>
<stop offset="1" stop-color="#DBFAD9"/>
</linearGradient>
<linearGradient id="paint7_linear_1448_4183" x1="335.5" y1="98.5" x2="332.73" y2="189.901" gradientUnits="userSpaceOnUse">
<stop stop-color="#DBFAD9"/>
<stop offset="1" stop-color="#C3EAC1"/>
</linearGradient>
<linearGradient id="paint8_linear_1448_4183" x1="337.574" y1="102.171" x2="323.195" y2="166.315" gradientUnits="userSpaceOnUse">
<stop offset="0.00356557" stop-color="#77D672"/>
<stop offset="0.796875" stop-color="#5AAE53"/>
<stop offset="1" stop-color="#56A84F"/>
</linearGradient>
<clipPath id="clip0_1448_4183">
<rect width="584" height="236" fill="white" transform="translate(15 16)"/>
</clipPath>
</defs>
</svg>
